<svg id="visual" viewBox="0 0 1920 1080" width="1920" height="1080" xmlns="http://www.w3.org/2000/svg" xmlns:xlink="http://www.w3.org/1999/xlink" version="1.1"><path d="M0 517L32 544.5C64 572 128 627 192 633.5C256 640 320 598 384 582C448 566 512 576 576 568C640 560 704 534 768 539.2C832 544.3 896 580.7 960 599.7C1024 618.7 1088 620.3 1152 629.3C1216 638.3 1280 654.7 1344 649.3C1408 644 1472 617 1536 608.2C1600 599.3 1664 608.7 1728 594.2C1792 579.7 1856 541.3 1888 522.2L1920 503L1920 1081L1888 1081C1856 1081 1792 1081 1728 1081C1664 1081 1600 1081 1536 1081C1472 1081 1408 1081 1344 1081C1280 1081 1216 1081 1152 1081C1088 1081 1024 1081 960 1081C896 1081 832 1081 768 1081C704 1081 640 1081 576 1081C512 1081 448 1081 384 1081C320 1081 256 1081 192 1081C128 1081 64 1081 32 1081L0 1081Z" fill="#d2d2e6"></path><path d="M0 663L32 674.7C64 686.3 128 709.7 192 712.8C256 716 320 699 384 701.5C448 704 512 726 576 728C640 730 704 712 768 704.2C832 696.3 896 698.7 960 700.5C1024 702.3 1088 703.7 1152 707.8C1216 712 1280 719 1344 738C1408 757 1472 788 1536 786.2C1600 784.3 1664 749.7 1728 738.7C1792 727.7 1856 740.3 1888 746.7L1920 753L1920 1081L1888 1081C1856 1081 1792 1081 1728 1081C1664 1081 1600 1081 1536 1081C1472 1081 1408 1081 1344 1081C1280 1081 1216 1081 1152 1081C1088 1081 1024 1081 960 1081C896 1081 832 1081 768 1081C704 1081 640 1081 576 1081C512 1081 448 1081 384 1081C320 1081 256 1081 192 1081C128 1081 64 1081 32 1081L0 1081Z" fill="#b4b4d6"></path><path d="M0 842L32 838.8C64 835.7 128 829.3 192 849.5C256 869.7 320 916.3 384 929.5C448 942.7 512 922.3 576 916C640 909.7 704 917.3 768 921.7C832 926 896 927 960 921.2C1024 915.3 1088 902.7 1152 891C1216 879.3 1280 868.7 1344 870.2C1408 871.7 1472 885.3 1536 883.3C1600 881.3 1664 863.7 1728 850.3C1792 837 1856 828 1888 823.5L1920 819L1920 1081L1888 1081C1856 1081 1792 1081 1728 1081C1664 1081 1600 1081 1536 1081C1472 1081 1408 1081 1344 1081C1280 1081 1216 1081 1152 1081C1088 1081 1024 1081 960 1081C896 1081 832 1081 768 1081C704 1081 640 1081 576 1081C512 1081 448 1081 384 1081C320 1081 256 1081 192 1081C128 1081 64 1081 32 1081L0 1081Z" fill="#9797c5"></path></svg>